<svg xmlns="http://www.w3.org/2000/svg" xmlns:xlink="http://www.w3.org/1999/xlink" contentStyleType="text/css" data-diagram-type="ACTIVITY" height="484px" preserveAspectRatio="none" style="width:265px;height:484px;background:#FFFFFF;" version="1.1" viewBox="0 0 265 484" width="265px" zoomAndPan="magnify"><?plantuml 1.2026.3beta4?><defs/><g><ellipse cx="130.9192" cy="25" fill="#222222" rx="10" ry="10" style="stroke:#222222;stroke-width:1;"/><rect fill="#F1F1F1" height="33.9688" rx="12.5" ry="12.5" style="stroke:#181818;stroke-width:0.5;" width="92.0005" x="84.9189" y="55"/><text fill="#000000" font-family="sans-serif" font-size="12" lengthAdjust="spacing" textLength="72.0005" x="94.9189" y="76.1387">&#36827;&#20837;&#20511;&#38405;&#39029;&#38754;</text><rect fill="#F1F1F1" height="33.9688" rx="12.5" ry="12.5" style="stroke:#181818;stroke-width:0.5;" width="144.366" x="58.7362" y="108.9688"/><text fill="#000000" font-family="sans-serif" font-size="12" lengthAdjust="spacing" textLength="124.366" x="68.7362" y="130.1074">&#36755;&#20837;ISBN&#21644;&#20511;&#38405;&#20154;&#20449;&#24687;</text><rect fill="#F1F1F1" height="33.9688" rx="12.5" ry="12.5" style="stroke:#181818;stroke-width:0.5;" width="116.0007" x="72.9188" y="162.9375"/><text fill="#000000" font-family="sans-serif" font-size="12" lengthAdjust="spacing" textLength="96.0007" x="82.9188" y="184.0762">&#31995;&#32479;&#26657;&#39564;&#20511;&#38405;&#26465;&#20214;</text><polygon fill="#F1F1F1" points="84.0003,216.9063,177.838,216.9063,189.838,228.9063,177.838,240.9063,84.0003,240.9063,72.0003,228.9063,84.0003,216.9063" style="stroke:#181818;stroke-width:0.5;"/><text fill="#000000" font-family="sans-serif" font-size="11" lengthAdjust="spacing" textLength="93.8378" x="84.0003" y="232.7144">&#26159;&#21542;&#28385;&#36275;&#20511;&#38405;&#26465;&#20214;?</text><text fill="#000000" font-family="sans-serif" font-size="11" lengthAdjust="spacing" textLength="10.9999" x="61.0004" y="226.312">&#21542;</text><text fill="#000000" font-family="sans-serif" font-size="11" lengthAdjust="spacing" textLength="10.9999" x="189.838" y="226.312">&#26159;</text><rect fill="#F1F1F1" height="33.9688" rx="12.5" ry="12.5" style="stroke:#181818;stroke-width:0.5;" width="92.0005" x="16" y="250.9063"/><text fill="#000000" font-family="sans-serif" font-size="12" lengthAdjust="spacing" textLength="72.0005" x="26" y="272.0449">&#25552;&#31034;&#20511;&#38405;&#22833;&#36133;</text><rect fill="#F1F1F1" height="33.9688" rx="12.5" ry="12.5" style="stroke:#181818;stroke-width:0.5;" width="92.0005" x="153.8378" y="250.9063"/><text fill="#000000" font-family="sans-serif" font-size="12" lengthAdjust="spacing" textLength="72.0005" x="163.8378" y="272.0449">&#29983;&#25104;&#20511;&#38405;&#35760;&#24405;</text><rect fill="#F1F1F1" height="33.9688" rx="12.5" ry="12.5" style="stroke:#181818;stroke-width:0.5;" width="92.0005" x="153.8378" y="304.875"/><text fill="#000000" font-family="sans-serif" font-size="12" lengthAdjust="spacing" textLength="72.0005" x="163.8378" y="326.0137">&#26356;&#26032;&#22270;&#20070;&#24211;&#23384;</text><rect fill="#F1F1F1" height="33.9688" rx="12.5" ry="12.5" style="stroke:#181818;stroke-width:0.5;" width="92.0005" x="153.8378" y="358.8438"/><text fill="#000000" font-family="sans-serif" font-size="12" lengthAdjust="spacing" textLength="72.0005" x="163.8378" y="379.9824">&#25552;&#31034;&#20511;&#38405;&#25104;&#21151;</text><polygon fill="#F1F1F1" points="130.9192,398.8125,142.9192,410.8125,130.9192,422.8125,118.9192,410.8125,130.9192,398.8125" style="stroke:#181818;stroke-width:0.5;"/><ellipse cx="130.9192" cy="453.8125" fill="none" rx="11" ry="11" style="stroke:#222222;stroke-width:1;"/><ellipse cx="130.9192" cy="453.8125" fill="#222222" rx="6" ry="6" style="stroke:#222222;stroke-width:1;"/><line style="stroke:#181818;stroke-width:1;" x1="130.9192" x2="130.9192" y1="35" y2="55"/><polygon fill="#181818" points="126.9192,45,130.9192,55,134.9192,45,130.9192,49" style="stroke:#181818;stroke-width:1;"/><line style="stroke:#181818;stroke-width:1;" x1="130.9192" x2="130.9192" y1="88.9688" y2="108.9688"/><polygon fill="#181818" points="126.9192,98.9688,130.9192,108.9688,134.9192,98.9688,130.9192,102.9688" style="stroke:#181818;stroke-width:1;"/><line style="stroke:#181818;stroke-width:1;" x1="130.9192" x2="130.9192" y1="142.9375" y2="162.9375"/><polygon fill="#181818" points="126.9192,152.9375,130.9192,162.9375,134.9192,152.9375,130.9192,156.9375" style="stroke:#181818;stroke-width:1;"/><line style="stroke:#181818;stroke-width:1;" x1="199.838" x2="199.838" y1="284.875" y2="304.875"/><polygon fill="#181818" points="195.838,294.875,199.838,304.875,203.838,294.875,199.838,298.875" style="stroke:#181818;stroke-width:1;"/><line style="stroke:#181818;stroke-width:1;" x1="199.838" x2="199.838" y1="338.8438" y2="358.8438"/><polygon fill="#181818" points="195.838,348.8438,199.838,358.8438,203.838,348.8438,199.838,352.8438" style="stroke:#181818;stroke-width:1;"/><line style="stroke:#181818;stroke-width:1;" x1="72.0003" x2="62.0003" y1="228.9063" y2="228.9063"/><line style="stroke:#181818;stroke-width:1;" x1="62.0003" x2="62.0003" y1="228.9063" y2="250.9063"/><polygon fill="#181818" points="58.0003,240.9063,62.0003,250.9063,66.0003,240.9063,62.0003,244.9063" style="stroke:#181818;stroke-width:1;"/><line style="stroke:#181818;stroke-width:1;" x1="189.838" x2="199.838" y1="228.9063" y2="228.9063"/><line style="stroke:#181818;stroke-width:1;" x1="199.838" x2="199.838" y1="228.9063" y2="250.9063"/><polygon fill="#181818" points="195.838,240.9063,199.838,250.9063,203.838,240.9063,199.838,244.9063" style="stroke:#181818;stroke-width:1;"/><line style="stroke:#181818;stroke-width:1;" x1="62.0003" x2="62.0003" y1="284.875" y2="410.8125"/><line style="stroke:#181818;stroke-width:1;" x1="62.0003" x2="118.9192" y1="410.8125" y2="410.8125"/><polygon fill="#181818" points="108.9192,406.8125,118.9192,410.8125,108.9192,414.8125,112.9192,410.8125" style="stroke:#181818;stroke-width:1;"/><line style="stroke:#181818;stroke-width:1;" x1="199.838" x2="199.838" y1="392.8125" y2="410.8125"/><line style="stroke:#181818;stroke-width:1;" x1="199.838" x2="142.9192" y1="410.8125" y2="410.8125"/><polygon fill="#181818" points="152.9192,406.8125,142.9192,410.8125,152.9192,414.8125,148.9192,410.8125" style="stroke:#181818;stroke-width:1;"/><line style="stroke:#181818;stroke-width:1;" x1="130.9192" x2="130.9192" y1="196.9063" y2="216.9063"/><polygon fill="#181818" points="126.9192,206.9063,130.9192,216.9063,134.9192,206.9063,130.9192,210.9063" style="stroke:#181818;stroke-width:1;"/><line style="stroke:#181818;stroke-width:1;" x1="130.9192" x2="130.9192" y1="422.8125" y2="442.8125"/><polygon fill="#181818" points="126.9192,432.8125,130.9192,442.8125,134.9192,432.8125,130.9192,436.8125" style="stroke:#181818;stroke-width:1;"/><?plantuml-src POn12e9068NtSmgNUWLd4RHhqwOJ12a9KP4Ue1P2H91aXI1X4-aYA8iiI4alup_gBPhIHT1RlkzxJzNQ8ms9UMA3xiBOAIoz8FTYkyUiZ4rMDbhr9Ypd9Kl3C4q8dVWO8J6xHLdaq1qfZXMcMv963yOKcUEfvOFXqOZaZzilhWcSrfNw7C-eW3WMaIwCx12M4XokUU1Y9FLKwNjIETdAeLEZTFBp1LvhN8tjW6ukOCVfquFGX9E5_ry_qvd3NliTHKP8rGR3Dm00?></g></svg>